<svg width="27" height="20" viewBox="0 0 27 20" fill="none" xmlns="http://www.w3.org/2000/svg">
<path d="M25.399 10.2432L21.2733 6.14111C19.6896 6.22551 18.2198 6.87403 17.0963 7.99118L13.3213 11.7424L21.624 19.9977L25.3968 16.2465C26.1987 15.4469 26.6409 14.3831 26.6409 13.2438C26.6409 12.1044 26.1987 11.0383 25.3968 10.241L25.399 10.2432Z" fill="#69C04B"/>
<path d="M9.5469 7.99356C8.42334 6.87641 6.95355 6.22789 5.36985 6.14349L1.24418 10.2434C0.442276 11.0407 0 12.1068 0 13.2461C0 14.3855 0.442276 15.4493 1.24418 16.2489L5.01692 20.0001L13.3196 11.7448L9.54466 7.99134L9.5469 7.99356Z" fill="#69C04B"/>
<path d="M20.4124 5.28811L16.3426 1.2393C16.3046 1.20154 16.2667 1.16601 16.2287 1.13047C16.1907 1.09716 16.1527 1.06162 16.1148 1.03053C16.1148 1.03053 16.1103 1.02608 16.1081 1.02608C15.5563 0.555241 14.913 0.248748 14.2407 0.102164C13.9481 0.0355354 13.6488 0.00222096 13.3517 0C13.3427 0 13.3338 0 13.3226 0C13.3137 0 13.3048 0 13.2936 0C12.9943 0.00222096 12.6972 0.0355354 12.4046 0.0999433C11.7322 0.246527 11.0867 0.55302 10.5372 1.02386C10.5372 1.02386 10.5327 1.02831 10.5305 1.02831C10.4925 1.06162 10.4545 1.09493 10.4166 1.12825C10.3786 1.16378 10.3406 1.19932 10.3026 1.23708L6.23282 5.28589L5.37061 6.14096C6.95431 6.22536 8.42409 6.87388 9.54765 7.99102L13.3226 11.7422L17.0976 7.99102C18.2212 6.87388 19.691 6.22536 21.2747 6.14096L20.4124 5.28589V5.28811Z" fill="#078732"/>
</svg>
