<?xml version="1.0" encoding="UTF-8"?> <svg xmlns="http://www.w3.org/2000/svg" width="88" height="88" viewBox="0 0 88 88" fill="none"><path d="M11.8887 33.8694H23.5423" stroke="url(#paint0_linear_1156_7391)" stroke-width="2.78542" stroke-linecap="round" stroke-linejoin="round"></path><path d="M6.4502 47.0769H18.8808" stroke="url(#paint1_linear_1156_7391)" stroke-width="2.78542" stroke-linecap="round" stroke-linejoin="round"></path><path d="M13.4424 57.9536H24.3191" stroke="url(#paint2_linear_1156_7391)" stroke-width="2.78542" stroke-linecap="round" stroke-linejoin="round"></path><path d="M51.5117 34.6462V50.1845H63.1654" stroke="url(#paint3_linear_1156_7391)" stroke-width="2.78542" stroke-linecap="round" stroke-linejoin="round"></path><path fill-rule="evenodd" clip-rule="evenodd" d="M50.1186 14.2855V20.1372C37.0633 21.2378 26.8105 32.1831 26.8105 45.5231C26.8105 59.5936 38.217 71 52.2875 71C66.358 71 77.7644 59.5936 77.7644 45.5231C77.7644 31.6587 66.6897 20.3809 52.904 20.0535V14.2855H59.2798C60.049 14.2855 60.6725 13.662 60.6725 12.8928C60.6725 12.1237 60.049 11.5001 59.2798 11.5001H51.5113H43.7416C42.9724 11.5001 42.3489 12.1237 42.3489 12.8928C42.3489 13.662 42.9724 14.2855 43.7416 14.2855H50.1186ZM52.2875 22.8316C39.7553 22.8316 29.596 32.9909 29.596 45.5231C29.596 58.0553 39.7553 68.2146 52.2875 68.2146C64.8197 68.2146 74.979 58.0553 74.979 45.5231C74.979 32.9909 64.8197 22.8316 52.2875 22.8316Z" fill="url(#paint4_linear_1156_7391)"></path><defs><linearGradient id="paint0_linear_1156_7391" x1="14.7971" y1="34.8137" x2="14.8835" y2="33.5887" gradientUnits="userSpaceOnUse"><stop offset="0.348605" stop-color="#69C04B"></stop><stop offset="1" stop-color="#A2F087"></stop></linearGradient><linearGradient id="paint1_linear_1156_7391" x1="9.55248" y1="48.0212" x2="9.63353" y2="46.7954" gradientUnits="userSpaceOnUse"><stop offset="0.348605" stop-color="#69C04B"></stop><stop offset="1" stop-color="#A2F087"></stop></linearGradient><linearGradient id="paint2_linear_1156_7391" x1="16.1569" y1="58.8979" x2="16.2494" y2="57.6738" gradientUnits="userSpaceOnUse"><stop offset="0.348605" stop-color="#69C04B"></stop><stop offset="1" stop-color="#A2F087"></stop></linearGradient><linearGradient id="paint3_linear_1156_7391" x1="54.4201" y1="49.3185" x2="63.9447" y2="40.6273" gradientUnits="userSpaceOnUse"><stop offset="0.348605" stop-color="#69C04B"></stop><stop offset="1" stop-color="#A2F087"></stop></linearGradient><linearGradient id="paint4_linear_1156_7391" x1="34.4261" y1="61.8046" x2="96.1686" y2="4.31015" gradientUnits="userSpaceOnUse"><stop stop-color="#15421A"></stop><stop offset="1" stop-color="#6AC04C"></stop></linearGradient></defs></svg> 