<?xml version="1.0" encoding="UTF-8"?> <svg xmlns="http://www.w3.org/2000/svg" width="232" height="50" viewBox="0 0 232 50" fill="none"><path d="M106.723 21.7026H102.4V39.1458H106.723V21.7026Z" fill="white"></path><path d="M102.009 16.88C102.009 20.2264 107.113 20.2264 107.113 16.88C107.113 13.5335 102.009 13.5335 102.009 16.88Z" fill="white"></path><path d="M125.047 20.0132L123.309 22.2004C122.105 21.3911 120.686 21.2162 119.305 21.2162C114.416 21.2162 110.446 24.5954 110.446 30.0252C110.446 35.455 113.85 38.7632 119.305 38.7632C121.467 38.7632 123.738 39.8568 123.738 42.2518C123.738 44.6468 121.786 45.9865 119.305 45.9865C116.825 45.9865 114.735 44.5047 114.735 42.2518H110.446C110.446 46.9379 114.24 50.0055 119.305 50.0055C124.37 50.0055 128.06 47.0473 128.06 42.2518C128.06 40.0318 127.351 37.9539 124.447 36.5103C127.318 35.2089 128.132 32.1742 128.132 30.0252C128.132 28.1223 127.637 26.3944 126.29 24.8798L128.236 22.4137L125.047 20.0187V20.0132ZM119.305 34.848C116.787 34.848 114.735 33.0491 114.735 30.0197C114.735 26.9904 116.792 25.1204 119.305 25.1204C121.819 25.1204 123.842 27.0232 123.842 30.0197C123.842 33.0162 121.786 34.848 119.305 34.848Z" fill="white"></path><path d="M141.749 21.5278C139.763 21.5278 137.85 22.1239 136.288 24.1361V14.4795H131.965V39.1459H136.288V30.2658C136.288 27.6575 138.058 25.5086 140.61 25.5086C142.915 25.5086 144.581 26.8483 144.581 30.0197V39.1459H148.903V29.9869C148.903 24.8798 146.704 21.5278 141.743 21.5278H141.749Z" fill="white"></path><path d="M161.602 35.4823C160.254 35.4823 159.336 34.6731 159.336 33.0162V25.5086H164.192V21.8067H159.374V16.8745L155.052 21.8067H151.791V25.5086H155.052V33.0162C155.052 37.3524 157.532 39.5014 161.327 39.3592C162.641 39.3264 163.664 39.1131 164.907 38.621L163.702 34.9574C163.065 35.2746 162.284 35.4878 161.613 35.4878L161.602 35.4823Z" fill="white"></path><path d="M227.15 21.741L224.741 27.5535L222.079 34.8151L219.39 27.4824L216.981 21.741H212.268L219.742 39.2169H224.422L231.863 21.741H227.15Z" fill="white"></path><path d="M98.8473 22.6541C98.8473 18.389 95.7621 14.5121 89.9162 14.4793C85.9841 14.4793 82.0464 14.4465 78.1143 14.4465V23.7641H82.7944V18.8155H89.9162C92.8584 18.8155 94.1672 20.7895 94.1672 22.7635C94.1672 24.7374 92.8914 26.7114 89.9162 26.7114H78.1143V39.1513H82.7944V30.9054H87.2929L94.5247 39.1513H100.09V38.8341L92.5779 30.4133C97.2909 29.4618 98.8528 26.0443 98.8528 22.665L98.8473 22.6541Z" fill="white"></path><path d="M189.214 22.6541C189.214 18.389 186.129 14.5121 180.283 14.4793C176.351 14.4793 172.414 14.4465 168.481 14.4465V23.7641H173.161V18.8155H180.283C183.226 18.8155 184.534 20.7895 184.534 22.7635C184.534 24.7374 183.259 26.7114 180.283 26.7114H168.481V39.1513H173.161V30.9054H177.66L184.892 39.1513H190.457V38.8341L182.945 30.4133C187.658 29.4618 189.22 26.0443 189.22 22.665L189.214 22.6541Z" fill="white"></path><path d="M201.66 35.6954C199.685 35.6954 198.212 35.0393 197.332 33.9949H192.591C193.845 37.4671 197.007 39.6106 201.588 39.6106C204.244 39.6106 207.258 38.6974 209.101 36.7891L206.334 34.0769C205.344 35.0994 203.255 35.6954 201.654 35.6954H201.66Z" fill="white"></path><path d="M201.269 21.249C195.599 21.249 191.986 25.0548 191.986 30.3369C191.986 30.9111 192.036 31.4634 192.107 31.9938H210.096C210.772 24.8415 207.121 21.249 201.269 21.249ZM200.912 28.4395H196.523C197.161 26.1867 199.075 25.0548 201.412 25.0548C203.893 25.0548 205.663 26.1812 205.949 28.4395H200.912Z" fill="white"></path><path d="M62.5344 25.2187L52.3769 15.1191C48.4778 15.3269 44.8591 16.9236 42.0929 19.674L32.7988 28.9096L53.2403 49.2344L62.5289 39.9988C64.5032 38.0303 65.5921 35.4111 65.5921 32.606C65.5921 29.8009 64.5032 27.1762 62.5289 25.2132L62.5344 25.2187Z" fill="#69C04B"></path><path d="M23.5047 19.6797C20.7385 16.9292 17.1198 15.3325 13.2207 15.1248L3.0632 25.2188C1.08889 27.1818 0 29.8065 0 32.6116C0 35.4168 1.08889 38.036 3.0632 40.0045L12.3518 49.24L32.7933 28.9152L23.4992 19.6742L23.5047 19.6797Z" fill="#69C04B"></path><path d="M50.2541 13.0195L40.2341 3.05118C40.1406 2.95822 40.0471 2.87073 39.9536 2.78325C39.8601 2.70122 39.7666 2.61374 39.6731 2.53718C39.6731 2.53718 39.6621 2.52625 39.6566 2.52625C38.2982 1.36702 36.7144 0.612423 35.0591 0.251531C34.3386 0.087489 33.6017 0.00546807 32.8703 0C32.8483 0 32.8263 0 32.7988 0C32.7768 0 32.7548 0 32.7273 0C31.9904 0.00546807 31.2589 0.087489 30.5385 0.246063C28.8832 0.606955 27.2938 1.36155 25.941 2.52078C25.941 2.52078 25.93 2.53171 25.9245 2.53171C25.831 2.61374 25.7375 2.69576 25.644 2.77778C25.5505 2.86527 25.457 2.95276 25.3635 3.04571L15.3435 13.014L13.2207 15.1192C17.1198 15.327 20.7385 16.9237 23.5047 19.6741L32.7988 28.9097L42.0929 19.6741C44.8591 16.9237 48.4777 15.327 52.3769 15.1192L50.2541 13.014V13.0195Z" fill="#078732"></path></svg> 